<?xml version="1.0" encoding="utf-8"?>
<!-- Generator: Adobe Illustrator 22.0.1, SVG Export Plug-In . SVG Version: 6.00 Build 0)  -->
<svg version="1.1" id="visa" xmlns="http://www.w3.org/2000/svg" xmlns:xlink="http://www.w3.org/1999/xlink" x="0px" y="0px"
	 viewBox="0 0 524 341" style="enable-background:new 0 0 524 341;" xml:space="preserve">
<style type="text/css">
	.st0{fill:#EEEEEE;}
	.st1{fill:#0023A0;}
	.st2{fill:#FFAB00;}
</style>
<path id="outline" class="st0" d="M500,9.5H24c-6.6,0-12,5.4-12,12v298c0,6.6,5.4,12,12,12h476c6.6,0,12-5.4,12-12v-298
	C512,14.9,506.6,9.5,500,9.5z M502,309.5c0,6.6-5.4,12-12,12H34c-6.6,0-12-5.4-12-12v-278c0-6.6,5.4-12,12-12h456
	c6.6,0,12,5.4,12,12V309.5z"/>
<g id="logo">
	<g>
		<path id="visa_1_" class="st1" d="M326,103.3c-33.2,0-56.6,17.7-56.8,42.9c-0.2,18.7,16.7,29.2,29.4,35.4
			c13.1,6.4,17.5,10.4,17.5,16.1c-0.1,8.7-10.5,12.7-20.1,12.7c-13.4,0-20.6-2-31.6-6.8l-4.4-2.1l-4.7,29.1
			c7.9,3.6,22.4,6.8,37.5,6.9c35.3,0,58.2-17.5,58.5-44.4c0.1-14.8-8.8-26.1-28.2-35.4c-11.7-6-19-10-18.9-16.1
			c0-5.4,6.1-11.2,19.3-11.2c11-0.2,18.9,2.3,25.1,5l3,1.5l4.6-28.2C349.5,106.2,339,103.3,326,103.3L326,103.3z M221.6,105.6
			l-21,130.1h33.6l21-130.1L221.6,105.6L221.6,105.6z M172.4,105.7l-32.9,88.7l-3.5-18c-8.2-22.1-25.9-45.3-46.6-54.7l30.1,113.9
			h35.6L208,105.7H172.4L172.4,105.7z M416.3,105.7c-8,0-14.1,2.3-17.6,10.8l-49.9,119.2h35.3c0,0,5.8-16.1,7.1-19.6
			c3.9,0,38.1,0.1,43,0.1c1,4.5,4.1,19.5,4.1,19.5h31.2l-27.2-130H416.3L416.3,105.7z M418.7,140.8l2.2,11.2c0,0,6.5,31.1,7.8,37.6
			h-27.9c2.8-7.5,13.4-36.4,13.4-36.4C414,153.6,417,145.7,418.7,140.8L418.7,140.8z"/>
		<path class="st2" d="M109,105.7H54.8l-0.3,2.2c42.1,10.8,69.9,37.2,81.5,68.5l-11.8-59.8C122.2,108.4,116.3,105.9,109,105.7"/>
	</g>
</g>
</svg>
