<?xml version="1.0" encoding="UTF-8"?><svg id="a" xmlns="http://www.w3.org/2000/svg" viewBox="0 0 508.86 281.84"><defs><style>.e{fill:#ef4123;}.f{fill:#5f0f78;}</style></defs><g id="b"><g><path class="f" d="M99.95,179.15c-.35,1.18-1.72,1.7-2.77,1.05-5.76-3.57-12.08-5.36-18.94-5.36-12.45,0-22.9,5.94-31.34,17.8-8.44,11.87-12.66,25.03-12.66,39.47,0,9.35,2.3,16.82,6.89,22.41,4.59,5.59,10.98,8.38,19.17,8.38,11.01,0,19.97-2.59,26.88-7.77,1.25-.94,3.02-.04,2.99,1.52l-.31,14.03c-.01,.54-.25,1.05-.66,1.4-7.83,6.5-18.93,9.74-33.3,9.74-13.17,0-23.8-4.33-31.88-12.99-8.08-8.66-12.12-19.91-12.12-33.74,0-22.36,6.21-41.12,18.64-56.28,12.42-15.16,28.65-22.74,48.68-22.74,9.13,0,17.29,1.39,24.5,4.18,.89,.35,1.36,1.33,1.09,2.25l-4.87,16.63Z"/><path class="f" d="M173.69,279.85h-16.95c-1.17,0-2.05-1.07-1.83-2.22h0c.3-1.56-1.36-2.75-2.74-1.97-6.76,3.84-14.87,5.76-24.33,5.76-7.64,0-13.63-2.19-17.97-6.56-4.34-4.37-6.52-10.43-6.52-18.18,0-2.43,.3-5.28,.91-8.55l10.42-55.75c.16-.88,.94-1.52,1.83-1.52h17.29c1.17,0,2.05,1.06,1.83,2.21l-10.13,54.24c-.44,2.38-.66,4.4-.66,6.06,0,7.19,4.04,10.79,12.12,10.79,6.58,0,12.1-2.14,16.56-6.43,4.45-4.29,7.23-9.45,8.34-15.48l8.86-49.84c.16-.89,.93-1.54,1.84-1.54h17.03c1.17,0,2.05,1.06,1.83,2.21l-15.91,85.26c-.16,.88-.94,1.52-1.83,1.52Z"/><path class="f" d="M190.39,246.48c0-16.05,4.9-29.61,14.69-40.67,9.79-11.07,22.19-16.6,37.19-16.6,11.46,0,20.28,2.98,26.48,8.92,6.2,5.95,9.3,14.4,9.3,25.36,0,16.38-4.84,30.13-14.53,41.25-9.68,11.12-22.19,16.68-37.52,16.68-11.23,0-19.98-3-26.23-9.01-6.25-6-9.38-14.65-9.38-25.94Zm21.58-1c0,12.67,5.45,19.01,16.35,19.01,8.63,0,15.47-4,20.5-11.99,5.04-8,7.55-17.47,7.55-28.43,0-11.95-5.45-17.93-16.35-17.93-8.47,0-15.26,3.94-20.38,11.83-5.12,7.88-7.68,17.06-7.68,27.52Z"/><path class="f" d="M340.17,207.55h-19.67c-1.4,0-2.61,.97-2.93,2.33l-8.43,37.09c-.72,3.15-1.08,5.78-1.08,7.89,0,6.09,3.43,9.13,10.29,9.13,2.41,0,6.03-.9,10.87-2.71,1.97-.73,4.07,.7,4.07,2.8v12.05c0,1.34-.88,2.53-2.17,2.89-5.73,1.6-13.14,2.4-22.23,2.4-6.75,0-12.17-2.1-16.27-6.31-4.1-4.21-6.14-9.68-6.14-16.44,0-2.21,.25-4.4,.75-6.56l9.22-40.92c.42-1.88-1-3.66-2.93-3.66h-2.83c-1.91,0-3.33-1.76-2.93-3.63l2.29-10.68c.3-1.38,1.52-2.37,2.93-2.37h5.39c1.44,0,2.68-1.02,2.95-2.43l2.7-14.07c.2-1.04,.93-1.89,1.92-2.25l16.94-6.16c2.24-.81,4.49,1.18,3.95,3.5l-4.12,17.74c-.44,1.88,.99,3.68,2.92,3.68h16.84c1.91,0,3.33,1.76,2.93,3.63l-2.29,10.68c-.3,1.38-1.52,2.37-2.93,2.37Z"/><path class="f" d="M420.76,247.89c-.39,2.05-.58,4.32-.58,6.81,0,9.44,.57,16.58,1.7,21.43,.43,1.87-1.01,3.64-2.93,3.64h-8.89c-2.95,0-5.33-1.72-7.13-5.17-.88-1.69-3.06-2.19-4.55-1-6.52,5.22-14.33,7.82-23.44,7.82-9.63,0-17.09-2.71-22.37-8.13-5.29-5.42-7.93-12.98-7.93-22.66,0-16.88,5.1-31.33,15.31-43.37,10.21-12.04,23.09-18.05,38.64-18.05,13.24,0,23.22,1.08,29.94,3.23,1.45,.46,2.32,1.93,2.04,3.42l-9.82,52.03Zm-23.99-41.75c-9.3,0-16.71,4.44-22.25,13.32-5.53,8.88-8.3,19.11-8.3,30.67,0,9.57,4.7,14.36,14.11,14.36,5.98,0,11.19-3.68,15.65-11.04,4.28-7.07,8.11-21.38,11.49-42.93,.25-1.56-.76-3.07-2.3-3.41-2.93-.65-5.73-.97-8.4-.97Z"/><path class="f" d="M498.37,211.85c-.85,1.67-3.01,2.17-4.49,1.03-5.56-4.27-10.71-6.41-15.46-6.41-3.43,0-6.41,.79-8.92,2.37-2.52,1.58-3.78,3.69-3.78,6.35,0,3.27,3,6.42,9.01,9.46,6,3.04,10.61,5.47,13.82,7.26,3.21,1.8,5.84,4.23,7.89,7.3,2.05,3.07,3.07,6.6,3.07,10.58,0,9.79-3.67,17.51-11,23.16-7.33,5.64-16.7,8.47-28.1,8.47-8.79,0-17.4-2.23-25.83-6.7-1.5-.8-2.04-2.69-1.18-4.16l7.58-13.04c.92-1.59,3.06-2,4.47-.83,6.01,4.98,11.91,7.46,17.71,7.46,4.21,0,7.68-1.05,10.42-3.15,2.74-2.1,4.11-4.95,4.11-8.55,0-2.99-2.6-5.84-7.8-8.55-5.2-2.71-9.79-5.19-13.78-7.43-3.98-2.24-7.01-4.98-9.09-8.22-2.07-3.24-3.11-6.82-3.11-10.75,0-8.63,3.44-15.51,10.33-20.63,6.89-5.12,15.34-7.68,25.36-7.68,6.22,0,14.11,1.91,23.69,5.72,1.64,.65,2.37,2.58,1.57,4.15l-6.47,12.78Z"/><g id="c"><path class="f" d="M400.85,167.82h18.38c1.66,0,3-1.34,3-3v-9.74c0-1.82-1.61-3.22-3.42-2.97l-18.38,2.58c-1.48,.21-2.58,1.48-2.58,2.97v7.17c0,1.66,1.34,3,3,3Z"/><path class="f" d="M478.82,143.69l-18.38,2.58c-1.48,.21-2.58,1.48-2.58,2.97v15.58c0,1.66,1.34,3,3,3h18.38c1.66,0,3-1.34,3-3v-18.16c0-1.82-1.61-3.22-3.42-2.97Z"/><path class="f" d="M448.82,147.9l-18.38,2.58c-1.48,.21-2.58,1.48-2.58,2.97v11.37c0,1.66,1.34,3,3,3h18.38c1.66,0,3-1.34,3-3v-13.95c0-1.82-1.61-3.22-3.42-2.97Z"/><path class="f" d="M388.82,156.31l-20.02,2.81c-1.48,.21-2.58,1.48-2.58,2.97v2.73c0,1.66,1.34,3,3,3h20.02c1.66,0,3-1.34,3-3v-5.54c0-1.82-1.61-3.22-3.42-2.97Z"/><path class="f" d="M505.44,139.96l-15,2.1c-1.48,.21-2.58,1.48-2.58,2.97v19.79c0,1.66,1.34,3,3,3h15c1.66,0,3-1.34,3-3v-21.89c0-1.82-1.61-3.22-3.42-2.97Z"/></g></g></g><g id="d"><g><path class="e" d="M107.92,120.05h-32.84v-12.34h-.42c-7.11,14.85-21.33,16.1-30.12,16.1-7.11,0-23.84-1.67-34.09-14.64C1.26,97.67,0,89.31,0,73.41V3.97H34.72V68.18c0,7.95,0,23.22,18.61,23.22,10.04,0,19.87-5.23,19.87-23.63V3.97h34.72V120.05Z"/><path class="e" d="M235.92,83.66c-5.65,12.97-13.8,23.01-23.63,29.7-9.62,6.9-21.13,10.46-33.05,10.46-33.26,0-61.49-26.98-61.49-61.49C117.75,29.91,143.27,0,178.61,0s61.28,28.03,61.28,63.37c0,4.6-.42,6.48-.84,9.2h-87.01c2.09,13.8,13.6,21.96,27.19,21.96,10.67,0,16.31-4.81,21.12-10.88h35.56Zm-30.75-34.51c-1.46-6.9-8.37-19.87-26.35-19.87s-24.89,12.97-26.35,19.87h52.71Z"/><path class="e" d="M250.14,3.97h32.63v12.76h.63c6.9-8.78,18.41-16.73,36.18-16.73,41.2,0,56.68,36.18,56.68,63.16,0,33.46-23.43,60.86-56.47,60.86-20.91,0-30.75-10.04-34.93-14.43v47.99l-34.72,1.16V3.97Zm91.4,58.15c0-13.8-10.04-29.7-29.07-29.7s-29.07,15.9-29.07,29.7c0,14.64,10.88,29.49,29.07,29.49s29.07-14.85,29.07-29.49Z"/><path class="e" d="M508.86,120.05h-34.72v-12.55h-.42c-5.86,11.29-20.29,16.52-33.88,16.52-36.81,0-58.35-28.86-58.35-62.12,0-38.07,27.4-61.91,58.35-61.91,19.03,0,29.7,9.2,33.88,16.31h.42V3.97l34.72-.14V120.05Zm-63.79-28.44c21.75,0,29.07-18.41,29.07-29.7,0-14.01-9.62-29.49-29.28-29.49s-28.65,16.73-28.65,29.91c0,10.88,7.95,29.28,28.86,29.28Z"/></g></g></svg>