<?xml version="1.0" encoding="utf-8"?>
<!-- Generator: Adobe Illustrator 26.1.0, SVG Export Plug-In . SVG Version: 6.00 Build 0)  -->
<svg version="1.1" id="a" xmlns="http://www.w3.org/2000/svg" xmlns:xlink="http://www.w3.org/1999/xlink" x="0px" y="0px"
	 viewBox="0 0 508.9 281.8" style="enable-background:new 0 0 508.9 281.8;" xml:space="preserve">
<style type="text/css">
	.st0{fill:#EEEEEE;}
</style>
<g id="b">
	<g>
		<path class="st0" d="M99.9,179.1c-0.3,1.2-1.7,1.7-2.8,1.1c-5.8-3.6-12.1-5.4-18.9-5.4c-12.4,0-22.9,5.9-31.3,17.8
			c-8.4,11.9-12.7,25-12.7,39.5c0,9.4,2.3,16.8,6.9,22.4s11,8.4,19.2,8.4c11,0,20-2.6,26.9-7.8c1.2-0.9,3,0,3,1.5l-0.3,14
			c0,0.5-0.2,1-0.7,1.4c-7.8,6.5-18.9,9.7-33.3,9.7c-13.2,0-23.8-4.3-31.9-13s-12.1-19.9-12.1-33.7c0-22.4,6.2-41.1,18.6-56.3
			c12.4-15.2,28.6-22.7,48.7-22.7c9.1,0,17.3,1.4,24.5,4.2c0.9,0.4,1.4,1.3,1.1,2.2L99.9,179.1L99.9,179.1z"/>
		<path class="st0" d="M173.7,279.9h-16.9c-1.2,0-2.1-1.1-1.8-2.2l0,0c0.3-1.6-1.4-2.8-2.7-2c-6.8,3.8-14.9,5.8-24.3,5.8
			c-7.6,0-13.6-2.2-18-6.6c-4.3-4.4-6.5-10.4-6.5-18.2c0-2.4,0.3-5.3,0.9-8.6l10.4-55.8c0.2-0.9,0.9-1.5,1.8-1.5h17.3
			c1.2,0,2.1,1.1,1.8,2.2l-10.1,54.2c-0.4,2.4-0.7,4.4-0.7,6.1c0,7.2,4,10.8,12.1,10.8c6.6,0,12.1-2.1,16.6-6.4
			c4.4-4.3,7.2-9.4,8.3-15.5l8.9-49.8c0.2-0.9,0.9-1.5,1.8-1.5h17c1.2,0,2.1,1.1,1.8,2.2l-15.9,85.3
			C175.3,279.2,174.6,279.9,173.7,279.9L173.7,279.9z"/>
		<path class="st0" d="M190.4,246.5c0-16.1,4.9-29.6,14.7-40.7c9.8-11.1,22.2-16.6,37.2-16.6c11.5,0,20.3,3,26.5,8.9
			c6.2,5.9,9.3,14.4,9.3,25.4c0,16.4-4.8,30.1-14.5,41.2c-9.7,11.1-22.2,16.7-37.5,16.7c-11.2,0-20-3-26.2-9
			C193.5,266.4,190.4,257.8,190.4,246.5L190.4,246.5z M212,245.5c0,12.7,5.4,19,16.4,19c8.6,0,15.5-4,20.5-12c5-8,7.5-17.5,7.5-28.4
			c0-11.9-5.4-17.9-16.4-17.9c-8.5,0-15.3,3.9-20.4,11.8C214.5,225.8,212,235,212,245.5L212,245.5z"/>
		<path class="st0" d="M340.2,207.6h-19.7c-1.4,0-2.6,1-2.9,2.3l-8.4,37.1c-0.7,3.1-1.1,5.8-1.1,7.9c0,6.1,3.4,9.1,10.3,9.1
			c2.4,0,6-0.9,10.9-2.7c2-0.7,4.1,0.7,4.1,2.8v12c0,1.3-0.9,2.5-2.2,2.9c-5.7,1.6-13.1,2.4-22.2,2.4c-6.8,0-12.2-2.1-16.3-6.3
			c-4.1-4.2-6.1-9.7-6.1-16.4c0-2.2,0.2-4.4,0.8-6.6l9.2-40.9c0.4-1.9-1-3.7-2.9-3.7h-2.8c-1.9,0-3.3-1.8-2.9-3.6l2.3-10.7
			c0.3-1.4,1.5-2.4,2.9-2.4h5.4c1.4,0,2.7-1,3-2.4l2.7-14.1c0.2-1,0.9-1.9,1.9-2.2l16.9-6.2c2.2-0.8,4.5,1.2,4,3.5l-4.1,17.7
			c-0.4,1.9,1,3.7,2.9,3.7h16.8c1.9,0,3.3,1.8,2.9,3.6l-2.3,10.7C342.8,206.5,341.6,207.5,340.2,207.6L340.2,207.6z"/>
		<path class="st0" d="M420.8,247.9c-0.4,2.1-0.6,4.3-0.6,6.8c0,9.4,0.6,16.6,1.7,21.4c0.4,1.9-1,3.6-2.9,3.6h-8.9
			c-3,0-5.3-1.7-7.1-5.2c-0.9-1.7-3.1-2.2-4.5-1c-6.5,5.2-14.3,7.8-23.4,7.8c-9.6,0-17.1-2.7-22.4-8.1c-5.3-5.4-7.9-13-7.9-22.7
			c0-16.9,5.1-31.3,15.3-43.4s23.1-18.1,38.6-18.1c13.2,0,23.2,1.1,29.9,3.2c1.5,0.5,2.3,1.9,2,3.4L420.8,247.9L420.8,247.9z
			 M396.8,206.1c-9.3,0-16.7,4.4-22.2,13.3c-5.5,8.9-8.3,19.1-8.3,30.7c0,9.6,4.7,14.4,14.1,14.4c6,0,11.2-3.7,15.6-11
			c4.3-7.1,8.1-21.4,11.5-42.9c0.2-1.6-0.8-3.1-2.3-3.4C402.2,206.5,399.4,206.1,396.8,206.1L396.8,206.1z"/>
		<path class="st0" d="M498.4,211.9c-0.9,1.7-3,2.2-4.5,1c-5.6-4.3-10.7-6.4-15.5-6.4c-3.4,0-6.4,0.8-8.9,2.4
			c-2.5,1.6-3.8,3.7-3.8,6.4c0,3.3,3,6.4,9,9.5c6,3,10.6,5.5,13.8,7.3c3.2,1.8,5.8,4.2,7.9,7.3c2,3.1,3.1,6.6,3.1,10.6
			c0,9.8-3.7,17.5-11,23.2c-7.3,5.6-16.7,8.5-28.1,8.5c-8.8,0-17.4-2.2-25.8-6.7c-1.5-0.8-2-2.7-1.2-4.2l7.6-13
			c0.9-1.6,3.1-2,4.5-0.8c6,5,11.9,7.5,17.7,7.5c4.2,0,7.7-1,10.4-3.1c2.7-2.1,4.1-5,4.1-8.6c0-3-2.6-5.8-7.8-8.6
			c-5.2-2.7-9.8-5.2-13.8-7.4c-4-2.2-7-5-9.1-8.2c-2.1-3.2-3.1-6.8-3.1-10.8c0-8.6,3.4-15.5,10.3-20.6c6.9-5.1,15.3-7.7,25.4-7.7
			c6.2,0,14.1,1.9,23.7,5.7c1.6,0.6,2.4,2.6,1.6,4.1L498.4,211.9L498.4,211.9z"/>
		<g id="c">
			<path class="st0" d="M400.9,167.8h18.4c1.7,0,3-1.3,3-3v-9.7c0-1.8-1.6-3.2-3.4-3l-18.4,2.6c-1.5,0.2-2.6,1.5-2.6,3v7.2
				C397.9,166.5,399.2,167.8,400.9,167.8L400.9,167.8z"/>
			<path class="st0" d="M478.8,143.7l-18.4,2.6c-1.5,0.2-2.6,1.5-2.6,3v15.6c0,1.7,1.3,3,3,3h18.4c1.7,0,3-1.3,3-3v-18.2
				C482.2,144.8,480.6,143.4,478.8,143.7z"/>
			<path class="st0" d="M448.8,147.9l-18.4,2.6c-1.5,0.2-2.6,1.5-2.6,3v11.4c0,1.7,1.3,3,3,3h18.4c1.7,0,3-1.3,3-3v-13.9
				C452.2,149,450.6,147.6,448.8,147.9z"/>
			<path class="st0" d="M388.8,156.3l-20,2.8c-1.5,0.2-2.6,1.5-2.6,3v2.7c0,1.7,1.3,3,3,3h20c1.7,0,3-1.3,3-3v-5.5
				C392.2,157.5,390.6,156.1,388.8,156.3z"/>
			<path class="st0" d="M505.4,140l-15,2.1c-1.5,0.2-2.6,1.5-2.6,3v19.8c0,1.7,1.3,3,3,3h15c1.7,0,3-1.3,3-3v-21.9
				C508.9,141.1,507.3,139.7,505.4,140z"/>
		</g>
	</g>
</g>
<g id="d">
	<g>
		<path class="st0" d="M107.9,120.1H75.1v-12.3h-0.4c-7.1,14.8-21.3,16.1-30.1,16.1c-7.1,0-23.8-1.7-34.1-14.6
			C1.3,97.7,0,89.3,0,73.4V4h34.7v64.2c0,7.9,0,23.2,18.6,23.2c10,0,19.9-5.2,19.9-23.6V4h34.7C107.9,4,107.9,120.1,107.9,120.1z"/>
		<path class="st0" d="M235.9,83.7c-5.6,13-13.8,23-23.6,29.7c-9.6,6.9-21.1,10.5-33.1,10.5c-33.3,0-61.5-27-61.5-61.5
			c0-32.4,25.5-62.3,60.9-62.3s61.3,28,61.3,63.4c0,4.6-0.4,6.5-0.8,9.2h-87c2.1,13.8,13.6,22,27.2,22c10.7,0,16.3-4.8,21.1-10.9
			L235.9,83.7L235.9,83.7z M205.2,49.2c-1.5-6.9-8.4-19.9-26.4-19.9s-24.9,13-26.4,19.9H205.2L205.2,49.2z"/>
		<path class="st0" d="M250.1,4h32.6v12.8h0.6C290.3,7.9,301.8,0,319.6,0c41.2,0,56.7,36.2,56.7,63.2c0,33.5-23.4,60.9-56.5,60.9
			c-20.9,0-30.8-10-34.9-14.4v48l-34.7,1.2L250.1,4L250.1,4z M341.5,62.1c0-13.8-10-29.7-29.1-29.7s-29.1,15.9-29.1,29.7
			c0,14.6,10.9,29.5,29.1,29.5S341.5,76.8,341.5,62.1z"/>
		<path class="st0" d="M508.9,120.1h-34.7v-12.6h-0.4c-5.9,11.3-20.3,16.5-33.9,16.5c-36.8,0-58.4-28.9-58.4-62.1
			c0-38.1,27.4-61.9,58.4-61.9c19,0,29.7,9.2,33.9,16.3h0.4V4l34.7-0.1V120.1z M445.1,91.6c21.8,0,29.1-18.4,29.1-29.7
			c0-14-9.6-29.5-29.3-29.5s-28.6,16.7-28.6,29.9C416.2,73.2,424.2,91.6,445.1,91.6L445.1,91.6z"/>
	</g>
</g>
</svg>
