<svg width="509" height="272" viewBox="0 0 509 272" fill="none" xmlns="http://www.w3.org/2000/svg">
<path d="M94.8601 169.16C94.5101 170.34 93.1401 170.86 92.0901 170.21C86.3301 166.64 80.0101 164.85 73.1501 164.85C60.7001 164.85 50.2501 170.79 41.8101 182.65C33.3701 194.52 29.1501 207.68 29.1501 222.12C29.1501 231.47 31.4501 238.94 36.0401 244.53C40.6301 250.12 47.0201 252.91 55.2101 252.91C66.2201 252.91 75.1801 250.32 82.0901 245.14C83.3401 244.2 85.1101 245.1 85.0801 246.66L84.7701 260.69C84.7601 261.23 84.5201 261.74 84.1101 262.09C76.2801 268.59 65.1801 271.83 50.8101 271.83C37.6401 271.83 27.0101 267.5 18.9301 258.84C10.8501 250.18 6.81006 238.93 6.81006 225.1C6.81006 202.74 13.0201 183.98 25.4501 168.82C37.8701 153.66 54.1001 146.08 74.1301 146.08C83.2601 146.08 91.4201 147.47 98.6301 150.26C99.5201 150.61 99.9901 151.59 99.7201 152.51L94.8501 169.14L94.8601 169.16Z" fill="#EEEEEE"/>
<path d="M168.61 269.86H151.66C150.49 269.86 149.61 268.79 149.83 267.64C150.13 266.08 148.47 264.89 147.09 265.67C140.33 269.51 132.22 271.43 122.76 271.43C115.12 271.43 109.13 269.24 104.79 264.87C100.45 260.5 98.27 254.44 98.27 246.69C98.27 244.26 98.57 241.41 99.18 238.14L109.6 182.39C109.76 181.51 110.54 180.87 111.43 180.87H128.72C129.89 180.87 130.77 181.93 130.55 183.08L120.42 237.32C119.98 239.7 119.76 241.72 119.76 243.38C119.76 250.57 123.8 254.17 131.88 254.17C138.46 254.17 143.98 252.03 148.44 247.74C152.89 243.45 155.67 238.29 156.78 232.26L165.64 182.42C165.8 181.53 166.57 180.88 167.48 180.88H184.51C185.68 180.88 186.56 181.94 186.34 183.09L170.43 268.35C170.27 269.23 169.49 269.87 168.6 269.87L168.61 269.86Z" fill="#EEEEEE"/>
<path d="M185.31 236.49C185.31 220.44 190.21 206.88 200 195.82C209.79 184.75 222.19 179.22 237.19 179.22C248.65 179.22 257.47 182.2 263.67 188.14C269.87 194.09 272.97 202.54 272.97 213.5C272.97 229.88 268.13 243.63 258.44 254.75C248.76 265.87 236.25 271.43 220.92 271.43C209.69 271.43 200.94 268.43 194.69 262.42C188.44 256.42 185.31 247.77 185.31 236.48V236.49ZM206.89 235.49C206.89 248.16 212.34 254.5 223.24 254.5C231.87 254.5 238.71 250.5 243.74 242.51C248.78 234.51 251.29 225.04 251.29 214.08C251.29 202.13 245.84 196.15 234.94 196.15C226.47 196.15 219.68 200.09 214.56 207.98C209.44 215.86 206.88 225.04 206.88 235.5L206.89 235.49Z" fill="#EEEEEE"/>
<path d="M335.09 197.56H315.42C314.02 197.56 312.81 198.53 312.49 199.89L304.06 236.98C303.34 240.13 302.98 242.76 302.98 244.87C302.98 250.96 306.41 254 313.27 254C315.68 254 319.3 253.1 324.14 251.29C326.11 250.56 328.21 251.99 328.21 254.09V266.14C328.21 267.48 327.33 268.67 326.04 269.03C320.31 270.63 312.9 271.43 303.81 271.43C297.06 271.43 291.64 269.33 287.54 265.12C283.44 260.91 281.4 255.44 281.4 248.68C281.4 246.47 281.65 244.28 282.15 242.12L291.37 201.2C291.79 199.32 290.37 197.54 288.44 197.54H285.61C283.7 197.54 282.28 195.78 282.68 193.91L284.97 183.23C285.27 181.85 286.49 180.86 287.9 180.86H293.29C294.73 180.86 295.97 179.84 296.24 178.43L298.94 164.36C299.14 163.32 299.87 162.47 300.86 162.11L317.8 155.95C320.04 155.14 322.29 157.13 321.75 159.45L317.63 177.19C317.19 179.07 318.62 180.87 320.55 180.87H337.39C339.3 180.87 340.72 182.63 340.32 184.5L338.03 195.18C337.73 196.56 336.51 197.55 335.1 197.55L335.09 197.56Z" fill="#EEEEEE"/>
<path d="M415.68 237.9C415.29 239.95 415.1 242.22 415.1 244.71C415.1 254.15 415.67 261.29 416.8 266.14C417.23 268.01 415.79 269.78 413.87 269.78H404.98C402.03 269.78 399.65 268.06 397.85 264.61C396.97 262.92 394.79 262.42 393.3 263.61C386.78 268.83 378.97 271.43 369.86 271.43C360.23 271.43 352.77 268.72 347.49 263.3C342.2 257.88 339.56 250.32 339.56 240.64C339.56 223.76 344.66 209.31 354.87 197.27C365.08 185.23 377.96 179.22 393.51 179.22C406.75 179.22 416.73 180.3 423.45 182.45C424.9 182.91 425.77 184.38 425.49 185.87L415.67 237.9H415.68ZM391.69 196.15C382.39 196.15 374.98 200.59 369.44 209.47C363.91 218.35 361.14 228.58 361.14 240.14C361.14 249.71 365.84 254.5 375.25 254.5C381.23 254.5 386.44 250.82 390.9 243.46C395.18 236.39 399.01 222.08 402.39 200.53C402.64 198.97 401.63 197.46 400.09 197.12C397.16 196.47 394.36 196.15 391.69 196.15V196.15Z" fill="#EEEEEE"/>
<path d="M493.28 201.86C492.43 203.53 490.27 204.03 488.79 202.89C483.23 198.62 478.08 196.48 473.33 196.48C469.9 196.48 466.92 197.27 464.41 198.85C461.89 200.43 460.63 202.54 460.63 205.2C460.63 208.47 463.63 211.62 469.64 214.66C475.64 217.7 480.25 220.13 483.46 221.92C486.67 223.72 489.3 226.15 491.35 229.22C493.4 232.29 494.42 235.82 494.42 239.8C494.42 249.59 490.75 257.31 483.42 262.96C476.09 268.6 466.72 271.43 455.32 271.43C446.53 271.43 437.92 269.2 429.49 264.73C427.99 263.93 427.45 262.04 428.31 260.57L435.89 247.53C436.81 245.94 438.95 245.53 440.36 246.7C446.37 251.68 452.27 254.16 458.07 254.16C462.28 254.16 465.75 253.11 468.49 251.01C471.23 248.91 472.6 246.06 472.6 242.46C472.6 239.47 470 236.62 464.8 233.91C459.6 231.2 455.01 228.72 451.02 226.48C447.04 224.24 444.01 221.5 441.93 218.26C439.86 215.02 438.82 211.44 438.82 207.51C438.82 198.88 442.26 192 449.15 186.88C456.04 181.76 464.49 179.2 474.51 179.2C480.73 179.2 488.62 181.11 498.2 184.92C499.84 185.57 500.57 187.5 499.77 189.07L493.3 201.85L493.28 201.86Z" fill="#EEEEEE"/>
<path d="M381.56 164.9C386.426 164.9 390.37 160.956 390.37 156.09C390.37 151.224 386.426 147.28 381.56 147.28C376.694 147.28 372.75 151.224 372.75 156.09C372.75 160.956 376.694 164.9 381.56 164.9Z" fill="#EEEEEE"/>
<path d="M418.78 164.9C423.646 164.9 427.59 160.956 427.59 156.09C427.59 151.224 423.646 147.28 418.78 147.28C413.914 147.28 409.97 151.224 409.97 156.09C409.97 160.956 413.914 164.9 418.78 164.9Z" fill="#EEEEEE"/>
<path d="M456 164.9C460.866 164.9 464.81 160.956 464.81 156.09C464.81 151.224 460.866 147.28 456 147.28C451.134 147.28 447.19 151.224 447.19 156.09C447.19 160.956 451.134 164.9 456 164.9Z" fill="#EEEEEE"/>
<path d="M493.22 164.9C498.086 164.9 502.03 160.956 502.03 156.09C502.03 151.224 498.086 147.28 493.22 147.28C488.355 147.28 484.41 151.224 484.41 156.09C484.41 160.956 488.355 164.9 493.22 164.9Z" fill="#EEEEEE"/>
<path d="M107.92 120.06H75.08V107.72H74.66C67.55 122.57 53.33 123.82 44.54 123.82C37.43 123.82 20.7 122.15 10.45 109.18C1.26 97.68 0 89.32 0 73.42V3.98001H34.72V68.19C34.72 76.14 34.72 91.41 53.33 91.41C63.37 91.41 73.2 86.18 73.2 67.78V3.98001H107.92V120.06Z" fill="#EEEEEE"/>
<path d="M235.92 83.67C230.27 96.64 222.12 106.68 212.29 113.37C202.67 120.27 191.16 123.83 179.24 123.83C145.98 123.83 117.75 96.85 117.75 62.34C117.75 29.92 143.27 0.0100098 178.61 0.0100098C213.95 0.0100098 239.89 28.04 239.89 63.38C239.89 67.98 239.47 69.86 239.05 72.58H152.04C154.13 86.38 165.64 94.54 179.23 94.54C189.9 94.54 195.54 89.73 200.35 83.66H235.91L235.92 83.67ZM205.17 49.16C203.71 42.26 196.8 29.29 178.82 29.29C160.84 29.29 153.93 42.26 152.47 49.16H205.18H205.17Z" fill="#EEEEEE"/>
<path d="M250.14 3.98001H282.77V16.74H283.4C290.3 7.96001 301.81 0.0100098 319.58 0.0100098C360.78 0.0100098 376.26 36.19 376.26 63.17C376.26 96.63 352.83 124.03 319.79 124.03C298.88 124.03 289.04 113.99 284.86 109.6V157.59L250.14 158.75V3.98001V3.98001ZM341.54 62.13C341.54 48.33 331.5 32.43 312.47 32.43C293.44 32.43 283.4 48.33 283.4 62.13C283.4 76.77 294.28 91.62 312.47 91.62C330.66 91.62 341.54 76.77 341.54 62.13V62.13Z" fill="#EEEEEE"/>
<path d="M508.86 120.06H474.14V107.51H473.72C467.86 118.8 453.43 124.03 439.84 124.03C403.03 124.03 381.49 95.17 381.49 61.91C381.49 23.84 408.89 0 439.84 0C458.87 0 469.54 9.2 473.72 16.31H474.14V3.98L508.86 3.84V120.06ZM445.07 91.62C466.82 91.62 474.14 73.21 474.14 61.92C474.14 47.91 464.52 32.43 444.86 32.43C425.2 32.43 416.21 49.16 416.21 62.34C416.21 73.22 424.16 91.62 445.07 91.62V91.62Z" fill="#EEEEEE"/>
</svg>
