<svg width="360" height="360" viewBox="0 0 360 360" fill="none" xmlns="http://www.w3.org/2000/svg">
<path d="M359.982 168.039C359.701 168.504 359.367 168.953 359.156 169.445C356.309 176.036 349.981 179.648 343.381 178.418C336.455 177.135 331.894 171.37 331.885 163.732C331.868 137.955 331.912 112.178 331.859 86.4011C331.832 74.2991 327.069 64.7371 315.899 59.3233C312.418 57.6359 308.34 56.7218 304.465 56.4318C298.313 55.9572 292.09 56.3088 285.446 56.3088C285.446 60.747 285.464 65.0359 285.446 69.3247C285.411 78.2013 279.61 84.3709 271.34 84.3533C263.105 84.3357 257.384 78.1485 257.349 69.2105C257.331 65.0183 257.349 60.8261 257.349 56.4318H193.332C193.332 61.0722 193.403 65.8181 193.315 70.5551C193.209 76.0568 190.634 80.2139 185.792 82.7538C180.94 85.3025 176.036 84.9861 171.475 81.9892C167.52 79.3789 165.367 75.5735 165.279 70.7837C165.191 66.1081 165.261 61.4325 165.261 56.4933H101.931C101.931 60.8701 101.957 65.282 101.931 69.6851C101.869 78.2452 95.9543 84.3709 87.816 84.3445C79.7041 84.3181 73.8948 78.1749 73.8421 69.5445C73.8157 65.238 73.8421 60.9228 73.8421 55.799C65.5017 56.2824 57.2931 55.7815 49.5415 57.4249C36.0686 60.2812 28.1588 71.6361 28.1324 86.1813C28.0885 110.438 28.1236 134.695 28.1236 158.942C28.1236 206.515 28.0973 254.088 28.1412 301.661C28.15 313.754 32.8431 323.483 44.0926 328.704C48.4869 330.743 53.7689 331.701 58.6553 331.736C93.5726 331.982 128.49 331.859 163.407 331.885C170.737 331.885 176.476 336.561 177.741 343.372C178.963 349.981 175.36 356.3 168.768 359.147C168.267 359.358 167.828 359.701 167.362 359.974H49.2163C48.7066 359.745 48.2232 359.385 47.6959 359.297C28.4488 356.036 14.3606 345.613 5.76534 328.212C3.08481 322.771 1.88077 316.602 0 310.766C0 232.96 0 155.146 0 77.34C0.219716 76.9533 0.562473 76.5842 0.632782 76.1623C5.54563 47.3356 28.2203 28.1764 57.4777 28.1324C62.8299 28.1324 68.1822 28.1324 73.8333 28.1324C73.8333 26.612 73.8333 25.4695 73.8333 24.3269C73.8333 20.8115 73.7894 17.296 73.8509 13.7894C73.9651 6.62663 78.421 2.73326 84.3709 0H91.4018C99.6895 3.38362 102.774 9.69386 101.983 18.3682C101.693 21.5673 101.939 24.8103 101.939 27.9479H165.244C165.244 26.6208 165.244 25.4782 165.244 24.3357C165.244 20.8203 165.2 17.3048 165.261 13.7982C165.376 6.63542 169.832 2.74205 175.781 0H182.812C191.1 3.38362 194.185 9.69386 193.394 18.3682C193.104 21.5673 193.35 24.8103 193.35 27.9479H257.358C257.358 26.6208 257.358 25.4782 257.358 24.3357C257.358 20.8203 257.314 17.3048 257.375 13.7982C257.489 6.63542 261.945 2.74205 267.895 0H274.926C283.214 3.38362 286.299 9.68507 285.508 18.3682C285.218 21.5673 285.464 24.8103 285.464 28.15C292.231 28.15 298.436 27.9566 304.632 28.1851C327.192 29.0201 343.785 39.6631 354.094 59.5781C356.924 65.0535 358.075 71.3989 360 77.34V168.039H359.982Z" fill="#5F0F78"/>
<path d="M266.471 359.982C262.156 359.051 257.762 358.365 253.534 357.144C220.05 347.503 198.79 325.549 191.618 291.668C182.03 246.328 210.444 203.176 255.802 192.005C292.916 182.865 334.1 202.183 350.798 236.485C355.14 245.396 358.163 254.651 359.306 264.512C359.385 265.179 359.745 265.821 359.973 266.48V283.354C359.402 286.316 358.972 289.313 358.242 292.231C349.823 326.111 329.011 348.065 295.245 357.451C291.343 358.532 287.309 359.156 283.337 359.991H266.462L266.471 359.982ZM331.85 274.935C331.876 243.849 306.301 218.178 275.102 217.967C243.99 217.756 217.984 243.665 217.958 274.891C217.932 305.976 243.507 331.648 274.706 331.859C305.818 332.07 331.823 306.161 331.85 274.935Z" fill="#5F0F78"/>
<path d="M87.8688 161.693C80.0645 161.693 73.8685 155.515 73.8421 147.719C73.8158 139.757 80.0908 133.534 88.0797 133.605C95.8489 133.675 101.966 139.924 101.931 147.755C101.895 155.541 95.6819 161.693 87.8688 161.693V161.693Z" fill="#5F0F78"/>
<path d="M148.95 133.605C156.78 133.57 163.029 139.687 163.099 147.456C163.17 155.436 156.947 161.711 148.985 161.693C141.189 161.667 135.02 155.471 135.011 147.667C135.011 139.854 141.163 133.649 148.95 133.605V133.605Z" fill="#5F0F78"/>
<path d="M224.268 147.614C224.286 155.427 218.134 161.649 210.356 161.693C202.385 161.737 196.136 155.489 196.189 147.517C196.241 139.739 202.464 133.596 210.277 133.614C218.072 133.631 224.251 139.818 224.268 147.614V147.614Z" fill="#5F0F78"/>
<path d="M285.437 147.755C285.402 155.541 279.189 161.693 271.375 161.693C263.43 161.693 257.252 155.374 257.358 147.368C257.454 139.625 263.747 133.543 271.595 133.605C279.364 133.675 285.481 139.924 285.446 147.755H285.437Z" fill="#5F0F78"/>
<path d="M87.8512 222.862C80.0556 222.853 73.8684 216.666 73.8421 208.871C73.8245 200.917 80.1084 194.703 88.0972 194.782C95.8576 194.853 101.975 201.119 101.931 208.95C101.887 216.728 95.6643 222.88 87.8512 222.871V222.862Z" fill="#5F0F78"/>
<path d="M163.099 208.853C163.082 216.649 156.903 222.836 149.108 222.862C141.154 222.88 134.941 216.596 135.02 208.607C135.09 200.847 141.356 194.73 149.187 194.774C156.965 194.818 163.117 201.04 163.108 208.853H163.099Z" fill="#5F0F78"/>
<path d="M87.9567 255.943C95.7522 255.969 101.922 262.165 101.922 269.969C101.922 277.914 95.6292 284.119 87.6315 284.022C79.8799 283.934 73.7806 277.659 73.8333 269.82C73.8861 262.042 80.126 255.916 87.9479 255.934L87.9567 255.943Z" fill="#5F0F78"/>
<path d="M149.231 284.031C141.391 284.093 135.108 278.002 135.011 270.25C134.914 262.253 141.11 255.943 149.055 255.943C156.859 255.943 163.064 262.112 163.099 269.899C163.135 277.73 157.009 283.97 149.231 284.031V284.031Z" fill="#5F0F78"/>
<path d="M288.944 260.873C291.563 260.873 293.664 260.82 295.755 260.882C303.445 261.11 309.369 267.28 309.342 274.996C309.307 282.528 303.428 288.759 295.931 288.909C288.672 289.058 281.403 289.067 274.144 288.909C266.946 288.751 261.014 282.792 260.917 275.568C260.776 265.496 260.759 255.415 260.917 245.344C261.04 237.864 267.368 232.038 274.926 232.046C282.476 232.046 288.698 237.908 288.909 245.387C289.05 250.397 288.935 255.415 288.935 260.873H288.944Z" fill="#5F0F78"/>
</svg>
