<svg width="360" height="361" viewBox="0 0 360 361" fill="none" xmlns="http://www.w3.org/2000/svg">
<path d="M22.514 0C25.5572 0.676266 28.6098 1.32436 31.6436 2.04758C64.5083 9.89979 88.0273 37.8521 90.7888 71.4776C92.2916 89.7838 94.743 108.015 96.7343 126.274C98.4907 142.326 100.191 158.397 101.938 174.449C103.581 189.561 105.244 204.674 106.935 220.125C108.456 220.125 109.837 220.125 111.218 220.125C144.148 220.125 177.078 220.115 210.009 220.134C217.373 220.134 223.375 225.253 224.239 232.128C225.169 239.436 220.82 246.001 213.691 247.814C212.132 248.209 210.45 248.209 208.816 248.209C171.781 248.227 134.755 248.209 97.7205 248.237C86.8627 248.237 80.0436 256.944 82.9366 266.956C84.5803 272.657 89.718 276.668 95.9265 277.053C97.2133 277.138 98.5001 277.091 99.7963 277.091C159.796 277.091 219.796 277.091 279.796 277.091C305.015 277.091 323.81 297.322 321.969 322.429C320.785 338.565 308.537 353.537 292.607 358.337C276.396 363.211 258.324 357.529 248.115 344.426C241.446 335.87 236.111 323.312 240.976 305.409H181.023C185.945 325.519 180.798 342.134 163.206 353.725C149.258 362.911 130.858 362.328 117.623 352.541C101.6 340.697 96.8752 324.73 101.628 305.748C96.4243 305.128 91.0424 305.006 85.9234 303.766C68.9416 299.671 56.4495 285.244 54.2986 267.867C52.1946 250.792 60.6292 233.847 75.6667 225.629C78.5127 224.079 78.8226 222.463 78.4751 219.561C76.5684 203.528 74.9247 187.457 73.1683 171.396C71.3931 155.109 69.5991 138.822 67.8239 122.536C66.0769 106.474 63.9823 90.4506 62.7049 74.3517C60.7137 49.236 41.7876 29.7275 16.6249 28.3844C8.53786 27.9523 3.05259 25.0219 0 17.5829V10.5479C2.0288 5.53223 5.54163 2.01941 10.5573 0H22.514ZM154.696 318.475C154.63 311.336 148.563 305.269 141.434 305.212C134.192 305.156 127.936 311.411 127.993 318.653C128.049 325.913 134.408 332.113 141.603 331.925C148.76 331.737 154.762 325.575 154.696 318.484V318.475ZM280.698 331.915C287.826 331.831 293.894 325.716 293.922 318.606C293.95 311.364 287.667 305.118 280.444 305.203C273.306 305.297 267.257 311.383 267.219 318.512C267.182 325.763 273.465 332.009 280.698 331.915Z" fill="#5F0F78"/>
<path d="M10.5573 0C5.54163 2.01941 2.02881 5.53223 0.00939941 10.5479V0H10.5573Z" fill="#5F0F78"/>
<path d="M194.793 76.6623C194.793 63.7005 194.783 51.2929 194.793 38.8759C194.802 30.0375 200.626 23.8854 208.938 23.9229C217.053 23.9511 222.877 30.1032 222.886 38.7256C222.905 49.978 222.886 61.2209 222.886 72.4732C222.886 73.7412 222.886 75.0092 222.886 76.6623C224.417 76.6623 225.666 76.6623 226.915 76.6623C238.28 76.6623 249.646 76.6435 261.011 76.6623C269.539 76.6811 275.654 82.6266 275.616 90.8075C275.588 98.7912 269.464 104.727 261.161 104.756C249.796 104.784 238.431 104.756 227.066 104.756C225.807 104.756 224.539 104.756 222.886 104.756V108.794C222.886 120.159 222.905 131.524 222.886 142.899C222.867 151.427 216.903 157.532 208.731 157.495C200.738 157.457 194.83 151.352 194.802 143.03C194.774 131.665 194.802 120.3 194.802 108.926C194.802 107.667 194.802 106.399 194.802 104.756C193.018 104.756 191.534 104.756 190.05 104.756C178.919 104.756 167.789 104.774 156.659 104.756C148.121 104.737 142.035 98.8006 142.072 90.6009C142.1 82.6078 148.206 76.6905 156.527 76.6717C167.892 76.6435 179.257 76.6717 190.622 76.6717C191.89 76.6717 193.149 76.6717 194.802 76.6717L194.793 76.6623Z" fill="#5F0F78"/>
<path d="M282.125 248.218C273.785 248.312 267.679 243.691 266.609 236.487C265.51 229.113 269.952 222.257 277.194 220.51C279.552 219.937 282.078 220.078 284.492 219.683C296.881 217.626 305.297 209.549 308.011 197.235C315.985 161.064 323.96 124.893 331.934 88.7224C333.521 81.5371 338.556 76.9253 345.084 76.6811C352.062 76.4181 357.773 80.4006 359.483 87.0787C360.018 89.1638 360.196 91.5683 359.736 93.6535C351.452 131.43 343.393 169.273 334.536 206.919C328.947 230.691 306.236 247.964 282.116 248.218H282.125Z" fill="#5F0F78"/>
</svg>
