<?xml version="1.0" encoding="utf-8"?>
<!-- Generator: Adobe Illustrator 23.1.0, SVG Export Plug-In . SVG Version: 6.00 Build 0)  -->
<svg version="1.1" id="Layer_2" xmlns="http://www.w3.org/2000/svg" xmlns:xlink="http://www.w3.org/1999/xlink" x="0px" y="0px"
	 viewBox="0 0 426.9 105.9" style="enable-background:new 0 0 426.9 105.9;" xml:space="preserve">
<style type="text/css">
	.st0{fill:#1F9BDD;}
	.st1{fill:#052562;}
</style>
<g>
	<g>
		<path class="st0" d="M77.5,26.9L65.9,38.6c-8.3-8.2-20.5-10.1-30.6-5.7L23.1,20.7C40.1,10.1,62.7,12.2,77.5,26.9"/>
		<polygon class="st0" points="132.8,34.7 84.9,82.5 73.3,70.9 109.3,34.9 89.4,15 101.3,3.1 		"/>
		<path class="st1" d="M80,87.4l-2.3,2.3c-7.4,7.4-16.6,11.6-26.2,12.7c-13,1.5-26.5-2.7-36.5-12.7C-2.3,72.4-2.3,44.4,15,27.1
			c0.8-0.8,1.6-1.5,2.4-2.3l11.7,11.7c-0.9,0.7-1.7,1.4-2.5,2.2c-10.9,10.9-10.9,28.5,0,39.4C37.5,89,55.2,89,66.1,78.1l2.3-2.3
			L80,87.4z"/>
		<polygon class="st1" points="65.9,58.7 54.6,57.1 56.2,68.4 47.5,77.1 45.6,63.2 44.5,55.7 43.1,45.6 53.2,47 53.3,47.1 74.6,50 
					"/>
		<polygon class="st1" points="139.8,83.8 129.7,82.4 108.3,79.5 117,70.7 128.3,72.3 126.8,61 135.5,52.3 138.4,73.7 		"/>
	</g>
	<g>
		<path class="st1" d="M153.1,22.6c0-8.8,6.7-15.1,15.7-15.1c4.8,0,8.9,1.7,11.6,4.9l-3.5,3.3c-2.1-2.3-4.8-3.4-7.8-3.4
			c-6.1,0-10.5,4.3-10.5,10.3s4.4,10.3,10.5,10.3c3.1,0,5.7-1.1,7.8-3.5l3.5,3.4c-2.7,3.2-6.8,4.9-11.7,4.9
			C159.8,37.7,153.1,31.3,153.1,22.6"/>
		<path class="st1" d="M182.5,26c0-6.7,5-11.5,11.9-11.5c7,0,12,4.7,12,11.5s-5,11.5-12,11.5C187.5,37.5,182.5,32.8,182.5,26
			 M201.1,26c0-4.3-2.9-7-6.7-7c-3.8,0-6.6,2.7-6.6,7c0,4.3,2.9,7,6.6,7C198.2,33.1,201.1,30.3,201.1,26"/>
		<path class="st1" d="M233.4,6.1v31.1h-5v-2.9c-1.8,2.1-4.4,3.2-7.4,3.2c-6.5,0-11.3-4.5-11.3-11.5s4.8-11.5,11.3-11.5
			c2.9,0,5.5,1,7.2,3V6.1H233.4z M228.2,26c0-4.3-2.9-7-6.7-7c-3.8,0-6.7,2.7-6.7,7c0,4.3,2.9,7,6.7,7
			C225.3,33.1,228.2,30.3,228.2,26"/>
		<path class="st1" d="M239.5,8c0-1.8,1.4-3.1,3.4-3.1c1.9,0,3.4,1.3,3.4,3c0,1.8-1.4,3.3-3.4,3.3C241,11.2,239.5,9.8,239.5,8
			 M240.2,14.8h5.2v22.4h-5.2V14.8z"/>
		<path class="st1" d="M274.4,24.4v12.8h-5.2V25.1c0-4-2-5.9-5.3-5.9c-3.7,0-6.3,2.3-6.3,6.8v11.3h-5.2V14.8h5v2.9
			c1.7-2.1,4.4-3.1,7.7-3.1C270.4,14.6,274.4,17.7,274.4,24.4"/>
		<path class="st1" d="M303.5,14.8v19c0,8.1-4.2,11.8-12.1,11.8c-4.2,0-8.4-1.1-10.9-3.2l2.4-3.9c2,1.6,5.2,2.7,8.3,2.7
			c5,0,7.1-2.3,7.1-6.8v-1.2c-1.8,2-4.5,3-7.5,3c-6.4,0-11.3-4.4-11.3-10.9c0-6.5,4.9-10.8,11.3-10.8c3.1,0,5.9,1,7.8,3.2v-3H303.5z
			 M298.4,25.4c0-3.8-2.9-6.3-6.8-6.3c-4,0-6.8,2.6-6.8,6.3c0,3.8,2.9,6.4,6.8,6.4C295.5,31.8,298.4,29.2,298.4,25.4"/>
		<polygon class="st1" points="357,14.8 348.7,37.3 343.7,37.3 337.9,21.8 332,37.3 327,37.3 318.7,14.8 323.7,14.8 329.6,31.4 
			335.8,14.8 340.2,14.8 346.2,31.5 352.3,14.8 		"/>
		<path class="st1" d="M359.8,8c0-1.8,1.4-3.1,3.4-3.1c1.9,0,3.4,1.3,3.4,3c0,1.8-1.4,3.3-3.4,3.3C361.3,11.2,359.8,9.8,359.8,8
			 M360.6,14.8h5.2v22.4h-5.2V14.8z"/>
		<path class="st1" d="M386.2,36c-1.3,1-3.1,1.5-5,1.5c-4.9,0-7.7-2.6-7.7-7.6V19.2h-3.7V15h3.7V9.9h5.2V15h6v4.2h-6v10.7
			c0,2.2,1.1,3.4,3.1,3.4c1.1,0,2.1-0.3,2.9-0.9L386.2,36z"/>
		<path class="st1" d="M412.5,24.4v12.8h-5.2V25.1c0-4-2-5.9-5.3-5.9c-3.7,0-6.3,2.3-6.3,6.8v11.3h-5.2V6.1h5.2v11.3
			c1.7-1.8,4.4-2.9,7.5-2.9C408.6,14.6,412.5,17.7,412.5,24.4"/>
		<path class="st1" d="M154.4,94.5l6.9-8.2c2.4,3.1,4.9,4.7,7.7,4.7c3.6,0,5.6-2.2,5.6-6.5V65.2h-15.4v-9.8h28v28.2
			c0,11.6-6,17.4-17.2,17.4C163.4,101,157.9,98.7,154.4,94.5"/>
		<path class="st1" d="M195.3,80.2V55.5H208v24.4c0,7.7,3.2,10.7,8.5,10.7c5.2,0,8.4-3.1,8.4-10.7V55.5h12.4v24.8
			c0,13.3-7.8,20.8-21,20.8C203.1,101,195.3,93.6,195.3,80.2"/>
		<polygon class="st1" points="288.4,55.5 288.4,100.1 278,100.1 258.3,76.3 258.3,100.1 245.9,100.1 245.9,55.5 256.3,55.5 
			276,79.3 276,55.5 		"/>
		<rect x="297.3" y="55.5" class="st1" width="12.6" height="44.7"/>
		<path class="st1" d="M316.7,77.8c0-13.4,10.5-23.2,24.8-23.2c14.3,0,24.8,9.8,24.8,23.2c0,13.4-10.5,23.2-24.8,23.2
			C327.2,101,316.7,91.2,316.7,77.8 M353.6,77.8c0-7.7-5.3-12.8-12.1-12.8c-6.8,0-12.1,5-12.1,12.8c0,7.7,5.3,12.8,12.1,12.8
			C348.3,90.6,353.6,85.5,353.6,77.8"/>
		<path class="st1" d="M392.5,88.3h-6.9v11.9H373V55.5h20.4c12.2,0,19.9,6.3,19.9,16.5c0,6.6-3.2,11.4-8.7,14.1l9.6,14h-13.5
			L392.5,88.3z M392.6,65.4h-7v13.1h7c5.2,0,7.9-2.4,7.9-6.5C400.5,67.8,397.9,65.4,392.6,65.4"/>
	</g>
</g>
</svg>
