<svg width="360" height="360" viewBox="0 0 360 360" fill="none" xmlns="http://www.w3.org/2000/svg">
<path d="M184.916 0C191.416 0.685675 197.954 1.11774 204.416 2.0852C257.692 10.0879 299.302 36.6414 329.669 81.0318C330.186 81.7832 330.721 82.5253 331.632 83.8215C331.745 82.2717 331.886 81.3042 331.886 80.3367C331.904 69.3284 331.876 58.3106 331.904 47.3022C331.933 38.905 338.104 32.4522 346.003 32.4991C353.968 32.5461 359.961 38.9144 359.97 47.4055C359.989 60.7621 360.027 74.1187 359.97 87.4659C359.867 110.976 341.983 129.076 318.501 129.348C305.032 129.508 291.562 129.461 278.084 129.424C269.236 129.395 262.961 123.422 263.055 115.278C263.149 107.238 269.583 101.33 278.375 101.301C287.279 101.264 296.184 101.283 305.088 101.283C306.206 101.283 307.333 101.283 308.451 101.283L309.108 100.39C304.186 93.9281 299.621 87.1465 294.267 81.0506C268.766 51.9798 236.699 34.9037 198.414 29.6625C191.36 28.695 184.146 28.9299 177.073 28.0657C170.724 27.2955 166.412 22.1858 165.623 15.6015C164.957 10.0221 168.357 4.16102 173.748 1.67192C175.082 1.0426 176.5 0.554176 177.881 0H184.916Z" fill="#5F0F78"/>
<path d="M0 266.474C0.864139 263.6 1.58739 260.679 2.6112 257.852C8.46293 241.64 23.4914 230.838 40.6991 230.65C54.5253 230.5 68.3515 230.518 82.1777 230.565C90.7534 230.594 96.9902 236.614 96.9432 244.617C96.9057 252.535 90.5092 258.622 82.0462 258.678C73.0291 258.734 64.0026 258.706 54.9855 258.706C53.8584 258.706 52.7219 258.706 50.5239 258.706C54.7883 264.586 58.273 269.959 62.3213 274.871C88.1703 306.253 121.327 324.728 161.575 330.317C167.812 331.181 174.199 331.003 180.492 331.519C191.707 332.44 197.813 343.054 192.6 352.475C189.772 357.594 185.132 359.82 179.469 359.735C136.637 359.059 98.4555 345.449 65.4679 318.031C58.3763 312.142 51.7638 305.558 45.6021 298.701C39.4404 291.854 34.1241 284.255 28.3381 276.863C28.2724 277.689 28.1315 278.647 28.1315 279.615C28.1127 290.398 28.1315 301.171 28.1221 311.954C28.1221 320.126 24.0832 325.508 16.8131 327.095C9.9376 328.598 4.12345 325.245 0.695068 317.825C0.563569 317.543 0.253606 317.355 0.0187856 317.13C0.0187856 300.26 0.0187856 283.381 0.0187856 266.512L0 266.474Z" fill="#5F0F78"/>
<path d="M165.464 271.837C160.824 271.217 156.606 271.001 152.549 270.043C133.209 265.488 119.664 248.524 119.279 228.668C119.12 220.647 124.661 214.156 132.025 213.743C140.413 213.273 146.612 218.637 147.476 227.099C148.604 238.277 153.92 243.124 165.032 243.124C173.232 243.124 181.431 243.171 189.631 243.114C202.894 243.03 211.648 234.304 211.761 221.126C211.78 218.317 211.798 215.499 211.742 212.691C211.507 201.044 202.631 192.196 190.909 191.923C182.606 191.726 174.171 192.402 166.018 191.21C140.892 187.518 123.807 166.657 124.135 141.061C124.455 116.415 139.004 97.9483 162.862 92.0402C164.74 91.5705 165.576 90.8379 165.511 88.7433C165.351 84.0657 165.304 79.3599 165.52 74.6916C165.886 66.9426 171.259 61.3069 178.614 60.6118C184.973 60.0201 191.858 64.6132 193.107 70.9627C193.896 74.9359 193.623 79.1157 193.802 83.1921C193.839 84.1314 193.915 85.0801 193.792 86.0006C193.295 89.5793 194.337 91.0258 198.367 91.796C218.223 95.6001 231.899 111.953 232.904 132.298C233.299 140.329 227.954 146.998 220.628 147.617C212.287 148.322 205.881 143.081 204.81 134.674C203.345 123.196 198.573 118.913 187.086 118.969C181.356 118.998 175.57 118.772 169.907 119.458C159.941 120.66 152.736 129.161 152.445 139.258C152.098 151.206 156.926 159.405 166.506 162.524C169.23 163.407 172.227 163.642 175.12 163.792C183.864 164.271 192.863 163.416 201.335 165.144C223.953 169.756 238.897 188.251 239.93 211.592C240.334 220.825 240.569 230.133 236.999 238.963C229.748 256.912 216.692 267.676 197.456 270.738C196.329 270.917 195.211 271.208 193.802 271.509C193.802 276.308 193.924 280.977 193.774 285.635C193.558 292.182 189.979 297.198 184.4 299.189C178.924 301.143 172.931 299.584 169.061 295.197C166.441 292.229 165.492 288.679 165.473 284.818C165.454 280.488 165.473 276.168 165.473 271.809L165.464 271.837Z" fill="#5F0F78"/>
<path d="M31.6539 82.544C31.6726 74.7762 38.0128 68.4642 45.7431 68.5112C53.4452 68.5581 59.7572 74.964 59.729 82.7037C59.7008 90.4058 53.201 96.8587 45.5834 96.7554C37.7968 96.6521 31.6351 90.3683 31.6539 82.544Z" fill="#5F0F78"/>
<path d="M22.1389 142.743C14.3241 142.752 7.96512 136.506 7.94633 128.785C7.92754 121.149 14.3898 114.677 22.0543 114.658C29.7752 114.639 36.1717 120.989 36.1999 128.7C36.2281 136.449 29.9349 142.743 22.1389 142.752V142.743Z" fill="#5F0F78"/>
<path d="M338.085 217.218C345.843 217.293 352.212 223.784 352.024 231.42C351.836 239.113 345.299 245.425 337.662 245.303C329.96 245.181 323.592 238.624 323.761 230.997C323.939 223.183 330.223 217.134 338.085 217.209V217.218Z" fill="#5F0F78"/>
<path d="M128.588 8.44414C136.355 8.47232 142.686 14.8594 142.602 22.5709C142.517 30.2543 136.055 36.5756 128.334 36.5193C120.585 36.4629 114.367 30.1228 114.423 22.3173C114.489 14.4462 120.641 8.41597 128.578 8.44414H128.588Z" fill="#5F0F78"/>
<path d="M263.675 313.814C263.722 306.065 270.175 299.725 277.849 299.875C285.645 300.035 291.816 306.365 291.75 314.143C291.675 321.826 285.156 328.241 277.52 328.129C269.799 328.006 263.637 321.629 263.684 313.814H263.675Z" fill="#5F0F78"/>
<path d="M245.538 337.634C245.491 345.505 239.329 351.573 231.411 351.535C223.662 351.488 217.293 345.083 217.378 337.409C217.463 329.716 223.897 323.432 231.636 323.47C239.414 323.507 245.585 329.8 245.538 337.643V337.634Z" fill="#5F0F78"/>
<path d="M328.326 277.173C328.373 285.006 322.202 291.365 314.481 291.45C306.76 291.534 300.317 285.222 300.251 277.501C300.185 269.771 306.422 263.346 314.143 263.196C321.788 263.046 328.27 269.442 328.316 277.173H328.326Z" fill="#5F0F78"/>
<path d="M96.3044 45.9872C96.3044 53.8114 90.1239 60.0107 82.2809 60.0483C74.5506 60.0858 68.2199 53.7457 68.2293 45.9778C68.2293 38.2851 74.6633 31.8228 82.2997 31.8322C90.0018 31.8322 96.3044 38.21 96.3044 45.9872V45.9872Z" fill="#5F0F78"/>
</svg>
