<?xml version="1.0" encoding="UTF-8"?><svg id="a" xmlns="http://www.w3.org/2000/svg" viewBox="0 0 459.05 284.89"><defs><style>.b{fill:#eee;}</style></defs><path class="b" d="M14.92,283.83v-101.13H0v-22H54.52v22h-15v101.13H14.92Z"/><path class="b" d="M85.48,283.83h-24.63v-123.12h24.63v123.12Z"/><path class="b" d="M154.92,229.48v32.54c0,15.3-7.57,22.87-22.87,22.87h-15.13c-15.3,0-22.87-7.57-22.87-22.87v-79.5c0-15.3,7.57-22.86,22.87-22.86h14.77c15.3,0,22.87,7.56,22.87,22.86v28.85h-24.24v-26.21c0-3-1.4-4.4-4.39-4.4h-2.82c-3,0-4.39,1.41-4.39,4.4v74.22c0,3,1.4,4.4,4.39,4.4h3.17c3,0,4.4-1.41,4.4-4.4v-29.9h24.24Z"/><path class="b" d="M200.32,283.83l-12.48-58.22v58.22h-24.63v-123.12h24.63v57.87l13.72-57.87h25.5l-16.14,60.54,15.47,62.61-26.07-.03Z"/><path class="b" d="M276.83,160.71v22h-21.1v27.61h20.19v22h-20.19v29.53h21.45v22h-46.08v-123.14h45.73Z"/><path class="b" d="M297.41,283.83v-101.13h-14.95v-22h54.52v22h-14.95v101.13h-24.62Z"/><path class="b" d="M401,239.33v22.69c0,15.3-7.56,22.87-22.86,22.87h-13.72c-15.3,0-22.86-7.57-22.86-22.87v-26.21h24.09v23.92c0,3,1.41,4.4,4.4,4.4h2.28c3,0,4.4-1.41,4.4-4.4v-14.77c0-3.87-1.23-5.8-4.22-7.91l-21.11-15.66c-7.56-5.45-9.84-10.55-9.84-19.35v-19.52c0-15.3,7.56-22.86,22.86-22.86h13.37c15.3,0,22.86,7.56,22.86,22.86v22.52h-24.09v-20.23c0-3-1.41-4.4-4.4-4.4h-1.94c-3,0-4.39,1.41-4.39,4.4v11.61c0,3.87,1.23,5.8,4.22,7.91l21.1,15.66c7.57,5.45,9.85,10.2,9.85,19.34Z"/><path class="b" d="M431.54,222.15c0-15.19,12.32-27.5,27.51-27.5v-28.7h-44.89v112.41h44.89v-28.7c-15.19,0-27.51-12.32-27.51-27.51h0Z"/><path class="b" d="M97.36,108.3h-29.62v-11.13h-.38c-6.42,13.4-19.25,14.53-27.17,14.53-6.42,0-21.51-1.51-30.76-13.21C1.13,88.11,0,80.57,0,66.25V3.58H31.32V61.51c0,7.17,0,20.94,16.79,20.94,9.06,0,17.93-4.71,17.93-21.32V3.58h31.32V108.3Z"/><path class="b" d="M212.83,75.47c-5.1,11.7-12.46,20.76-21.32,26.79-8.7,6.2-19.13,9.5-29.81,9.44-30.61-.04-55.42-24.84-55.48-55.45C106.22,27,129.22,.02,161.13,.02s55.28,25.23,55.28,57.15c.02,2.78-.23,5.56-.75,8.3h-78.49c1.88,12.45,12.26,19.78,24.53,19.78,9.62,0,14.71-4.34,19.05-9.81l32.08,.03Zm-27.74-31.13c-1.32-6.23-7.55-17.93-23.77-17.93s-22.46,11.7-23.78,17.93h47.55Z"/><path class="b" d="M225.65,3.58h29.44V15.09h.57c6.22-7.92,16.6-15.09,32.64-15.09,37.17,0,51.13,32.64,51.13,57,0,30.19-21.13,54.91-50.94,54.91-18.87,0-27.74-9.06-31.51-13v44.34h-31.33V3.58Zm82.46,52.46c0-12.46-9.06-26.8-26.23-26.8s-26.22,14.34-26.22,26.8c0,13.21,9.81,26.6,26.22,26.6s26.23-13.39,26.23-26.6Z"/><path class="b" d="M459.05,108.3h-31.32v-11.32h-.38c-5.28,10.19-18.3,14.91-30.57,14.91-33.2,0-52.64-26-52.64-56C344.14,21.55,368.86,.04,396.78,.04c17.17,0,26.8,8.3,30.57,14.72h.38V3.58h31.32V108.3Zm-57.55-25.66c19.62,0,26.23-16.6,26.23-26.79,0-12.6-8.68-26.6-26.42-26.6s-25.85,15.1-25.85,27c0,9.79,7.17,26.39,26.04,26.39Z"/></svg>