<svg xmlns="http://www.w3.org/2000/svg" viewBox="0 0 459.05 284.89"><defs><style>.a{fill:#010101;}.b{fill:#c0812b;}.c{fill:#ef4123;}</style></defs><title>uepa_tickets</title><path class="a" d="M21,287.58V186.45H6.08v-22H60.6v22h-15V287.58Z" transform="translate(-6.08 -3.75)"/><path class="a" d="M91.56,287.58H66.93V164.46H91.56Z" transform="translate(-6.08 -3.75)"/><path class="a" d="M161,233.23v32.54c0,15.3-7.57,22.87-22.87,22.87H123c-15.3,0-22.87-7.57-22.87-22.87v-79.5c0-15.3,7.57-22.86,22.87-22.86h14.77c15.3,0,22.87,7.56,22.87,22.86v28.85H136.4V188.91c0-3-1.4-4.4-4.39-4.4h-2.82c-3,0-4.39,1.41-4.39,4.4v74.22c0,3,1.4,4.4,4.39,4.4h3.17c3,0,4.4-1.41,4.4-4.4v-29.9Z" transform="translate(-6.08 -3.75)"/><path class="a" d="M206.4,287.58l-12.48-58.22v58.22H169.29V164.46h24.63v57.87l13.72-57.87h25.5L217,225l15.47,62.61Z" transform="translate(-6.08 -3.75)"/><path class="a" d="M282.91,164.46v22h-21.1v27.61H282v22H261.81V265.6h21.45v22H237.18V164.46Z" transform="translate(-6.08 -3.75)"/><path class="a" d="M303.49,287.58V186.45H288.54v-22h54.52v22H328.11V287.58Z" transform="translate(-6.08 -3.75)"/><path class="a" d="M407.08,243.08v22.69c0,15.3-7.56,22.87-22.86,22.87H370.5c-15.3,0-22.86-7.57-22.86-22.87V239.56h24.09v23.92c0,3,1.41,4.4,4.4,4.4h2.28c3,0,4.4-1.41,4.4-4.4V248.71c0-3.87-1.23-5.8-4.22-7.91l-21.11-15.66c-7.56-5.45-9.84-10.55-9.84-19.35V186.27c0-15.3,7.56-22.86,22.86-22.86h13.37c15.3,0,22.86,7.56,22.86,22.86v22.52H382.64V188.56c0-3-1.41-4.4-4.4-4.4H376.3c-3,0-4.39,1.41-4.39,4.4v11.61c0,3.87,1.23,5.8,4.22,7.91l21.1,15.66C404.8,229.19,407.08,233.94,407.08,243.08Z" transform="translate(-6.08 -3.75)"/><path class="b" d="M437.62,225.9a27.51,27.51,0,0,1,27.51-27.5V169.7H420.24V282.11h44.89v-28.7A27.51,27.51,0,0,1,437.62,225.9Z" transform="translate(-6.08 -3.75)"/><path class="c" d="M103.44,112.05H73.82V100.92h-.38c-6.42,13.4-19.25,14.53-27.17,14.53-6.42,0-21.51-1.51-30.76-13.21C7.21,91.86,6.08,84.32,6.08,70V7.33H37.4V65.26c0,7.17,0,20.94,16.79,20.94,9.06,0,17.93-4.71,17.93-21.32V7.33h31.32Z" transform="translate(-6.08 -3.75)"/><path class="c" d="M218.91,79.22c-5.1,11.7-12.46,20.76-21.32,26.79a50.88,50.88,0,0,1-29.81,9.44A55.56,55.56,0,0,1,112.3,60c0-29.25,23-56.23,54.91-56.23S222.49,29,222.49,60.92a42.69,42.69,0,0,1-.75,8.3H143.25C145.13,81.67,155.51,89,167.78,89c9.62,0,14.71-4.34,19.05-9.81ZM191.17,48.09c-1.32-6.23-7.55-17.93-23.77-17.93s-22.46,11.7-23.78,17.93Z" transform="translate(-6.08 -3.75)"/><path class="c" d="M231.73,7.33h29.44V18.84h.57c6.22-7.92,16.6-15.09,32.64-15.09,37.17,0,51.13,32.64,51.13,57,0,30.19-21.13,54.91-50.94,54.91-18.87,0-27.74-9.06-31.51-13V147H231.73Zm82.46,52.46c0-12.46-9.06-26.8-26.23-26.8s-26.22,14.34-26.22,26.8c0,13.21,9.81,26.6,26.22,26.6S314.19,73,314.19,59.79Z" transform="translate(-6.08 -3.75)"/><path class="c" d="M465.13,112.05H433.81V100.73h-.38c-5.28,10.19-18.3,14.91-30.57,14.91-33.2,0-52.64-26-52.64-56,0-34.34,24.72-55.85,52.64-55.85,17.17,0,26.8,8.3,30.57,14.72h.38V7.33h31.32ZM407.58,86.39c19.62,0,26.23-16.6,26.23-26.79C433.81,47,425.13,33,407.39,33c-17.92,0-25.85,15.1-25.85,27C381.54,69.79,388.71,86.39,407.58,86.39Z" transform="translate(-6.08 -3.75)"/></svg>